<svg width="34" height="34" viewBox="0 0 34 34" fill="none" xmlns="http://www.w3.org/2000/svg">
<path d="M17 34C26.3888 34 34 26.3888 34 17C34 7.61116 26.3888 0 17 0C7.61116 0 0 7.61116 0 17C0 26.3888 7.61116 34 17 34Z" fill="#F833A9"/>
<path d="M25.0288 9.52023C27.6968 13.4429 29.0144 17.8676 28.5219 22.9614C28.5198 22.983 28.5086 23.0027 28.4909 23.0157C26.4705 24.4993 24.513 25.3996 22.5829 25.9967C22.5679 26.0013 22.5518 26.001 22.5369 25.996C22.5221 25.991 22.5091 25.9814 22.4999 25.9687C22.054 25.3483 21.6489 24.6942 21.294 24.0073C21.2736 23.9669 21.2922 23.9181 21.3341 23.9022C21.9776 23.6598 22.5894 23.3692 23.1779 23.0252C23.2243 22.998 23.2273 22.9316 23.1844 22.8997C23.0595 22.807 22.9358 22.7095 22.8174 22.6121C22.7952 22.594 22.7654 22.5905 22.7403 22.6026C18.9195 24.367 14.734 24.367 10.868 22.6026C10.8429 22.5914 10.8131 22.5952 10.7915 22.6129C10.6734 22.7104 10.5494 22.807 10.4257 22.8997C10.3828 22.9316 10.3864 22.998 10.433 23.0252C11.0216 23.3627 11.6334 23.6598 12.276 23.9034C12.3176 23.9193 12.3374 23.9669 12.3167 24.0073C11.9695 24.6951 11.5643 25.3491 11.1101 25.9695C11.0904 25.9946 11.0579 26.0062 11.0272 25.9967C9.10628 25.3996 7.14877 24.4993 5.12837 23.0157C5.11153 23.0027 5.09943 22.9821 5.09765 22.9605C4.68601 18.5544 5.52495 14.0931 8.58744 9.51935C8.59483 9.50724 8.60605 9.49779 8.61904 9.49218C10.1259 8.8006 11.7403 8.29181 13.4276 8.00124C13.4583 7.99652 13.489 8.01069 13.505 8.03786C13.7135 8.40698 13.9518 8.88033 14.113 9.26717C15.8916 8.9955 17.6979 8.9955 19.5136 9.26717C19.6749 8.8886 19.9049 8.40698 20.1125 8.03786C20.1199 8.02438 20.1313 8.01359 20.1452 8.00701C20.1591 8.00044 20.1747 7.99842 20.1899 8.00124C21.8781 8.2927 23.4924 8.80149 24.9981 9.49218C25.0114 9.49779 25.0223 9.50724 25.0288 9.52023ZM15.0172 17.8977C15.0358 16.5952 14.0861 15.5173 12.894 15.5173C11.7117 15.5173 10.7711 16.5857 10.7711 17.8977C10.7711 19.2094 11.7303 20.2778 12.894 20.2778C14.0767 20.2778 15.0172 19.2094 15.0172 17.8977ZM22.8667 17.8977C22.8853 16.5952 21.9356 15.5173 20.7438 15.5173C19.5612 15.5173 18.6207 16.5857 18.6207 17.8977C18.6207 19.2094 19.5798 20.2778 20.7438 20.2778C21.9356 20.2778 22.8667 19.2094 22.8667 17.8977Z" fill="white"/>
</svg>
