<svg width="34" height="34" viewBox="0 0 34 34" fill="none" xmlns="http://www.w3.org/2000/svg">
<path d="M17 34C26.3888 34 34 26.3888 34 17C34 7.61116 26.3888 0 17 0C7.61116 0 0 7.61116 0 17C0 26.3888 7.61116 34 17 34Z" fill="#F833A9"/>
<path d="M9.38985 12.264C9.4022 12.142 9.38564 12.0188 9.34151 11.9044C9.29738 11.79 9.22692 11.6876 9.13585 11.6055L7.25385 9.33846V9H13.0969L17.6131 18.9048L21.5838 9H27.1538V9.33862L25.5449 10.8812C25.4769 10.9331 25.4242 11.0026 25.3927 11.0821C25.3612 11.1617 25.3521 11.2484 25.3662 11.3328V22.6672C25.3521 22.7516 25.3612 22.8383 25.3927 22.9179C25.4242 22.9974 25.4769 23.0669 25.5449 23.1188L27.1162 24.6614V25H19.2128V24.6614L20.8405 23.0811C21.0005 22.9211 21.0005 22.8742 21.0005 22.6297V13.468L16.4748 24.9623H15.8631L10.5942 13.468V21.1717C10.5725 21.3315 10.5875 21.4942 10.638 21.6474C10.6886 21.8006 10.7733 21.9403 10.8858 22.0558L13.0028 24.6237V24.9623H7V24.6238L9.11692 22.0558C9.22855 21.9402 9.31141 21.7999 9.35882 21.6463C9.40623 21.4927 9.41686 21.3301 9.38985 21.1717V12.264Z" fill="white"/>
</svg>
