<svg width="34" height="34" viewBox="0 0 34 34" fill="none" xmlns="http://www.w3.org/2000/svg">
<path d="M17 34C26.3888 34 34 26.3888 34 17C34 7.61116 26.3888 0 17 0C7.61116 0 0 7.61116 0 17C0 26.3888 7.61116 34 17 34Z" fill="#F833A9"/>
<path fill-rule="evenodd" clip-rule="evenodd" d="M8.32725 15.8879L18.6949 11.4221C23.632 9.36859 24.6579 9.01189 25.3266 9.00013C25.4737 8.99753 25.8025 9.03397 26.0154 9.20681C26.1954 9.35273 26.2448 9.54992 26.2685 9.68823C26.2922 9.82654 26.3217 10.1418 26.2982 10.3881C26.0307 13.1991 24.873 20.021 24.2841 23.1694C24.0348 24.5017 23.5445 24.9484 23.0691 24.9921C22.0367 25.0871 21.2528 24.3098 20.2528 23.6543L16.2854 20.9893C14.5301 19.8327 15.668 19.197 16.6683 18.158C16.9301 17.886 21.4788 13.7486 21.5668 13.3733C21.5775 13.3264 21.5881 13.1515 21.4841 13.059C21.3802 12.9666 21.2267 12.9986 21.116 13.0233C20.9591 13.059 18.4595 14.7111 13.6173 17.9798C12.9077 18.467 12.2651 18.7044 11.6893 18.692C11.0545 18.6783 9.83353 18.3331 8.92583 18.038C7.81247 17.6761 6.9276 17.4848 7.00468 16.8701C7.04479 16.55 7.48564 16.2227 8.32721 15.888L8.32725 15.8879Z" fill="white"/>
</svg>
