<svg width="34" height="34" viewBox="0 0 34 34" fill="none" xmlns="http://www.w3.org/2000/svg">
<circle cx="17" cy="17" r="17" fill="#F833A9"/>
<path d="M12.9628 26C21.3179 26 25.887 19.0756 25.887 13.071C25.887 12.8743 25.883 12.6786 25.8742 12.4836C26.7632 11.8401 27.5305 11.0433 28.14 10.1306C27.3261 10.4926 26.4502 10.7362 25.5314 10.846C26.4693 10.2835 27.1892 9.39351 27.5289 8.33269C26.6373 8.86184 25.6618 9.23486 24.6445 9.43568C23.8156 8.55242 22.6356 8 21.3288 8C18.8204 8 16.7862 10.035 16.7862 12.5434C16.7862 12.9001 16.8261 13.2468 16.904 13.5796C13.1288 13.3895 9.78112 11.5813 7.54071 8.83187C7.13719 9.52534 6.92495 10.3135 6.92565 11.1158C6.92565 12.6923 7.72755 14.084 8.94705 14.8983C8.2257 14.8762 7.52019 14.6813 6.88983 14.3299C6.88915 14.349 6.88915 14.3676 6.88915 14.388C6.88915 16.5886 8.45488 18.426 10.5333 18.8423C10.143 18.9487 9.74017 19.0025 9.33558 19.0022C9.04339 19.0022 8.75863 18.9735 8.48188 18.9203C9.06018 20.7258 10.7371 22.0397 12.7252 22.0764C11.1705 23.2954 9.21205 24.0215 7.08351 24.0215C6.72142 24.0218 6.35962 24.0008 6 23.9585C8.01033 25.2476 10.3974 25.9997 12.963 25.9997" fill="white"/>
</svg>
